<?xml version="1.0" encoding="iso-8859-1"?>
<!-- Uploaded to: SVG Repo, www.svgrepo.com, Generator: SVG Repo Mixer Tools -->
<svg height="800px" width="800px" version="1.1" id="Layer_1" xmlns="http://www.w3.org/2000/svg" xmlns:xlink="http://www.w3.org/1999/xlink" 
	 viewBox="0 0 512 512" xml:space="preserve">
<path style="fill:#B4AA5A;" d="M184.174,225.721c0,0-100.669-48.667-120.003-48.001c-54.7,1.887-57.988,71.775-56.001,72.002
	c30.751,3.5,184.005,24.001,184.005,24.001L184.174,225.721z"/>
<path style="fill:#AF915A;" d="M272.176,185.72c0,0-100.56,21.567-111.055,51.067l5.506,18.051
	c22.829,34.226,99.401,116.172,113.549,130.886c16.667,17.334,43.334,3.334,48.001,0L272.176,185.72z"/>
<path style="fill:#968C5A;" d="M504.182,337.723c0-8-8-16.666-8-16.666c-13,10-67.336,41.167-112.003,41.167
	c0,0-8-98.002,35.905-142.004c0,0-35.905-74.501-99.907-74.501c-32.001,0-49.189,10.376-56.001,24
	c-16,32.001-16,184.005,64.002,232.006c20.138,12.084,86.706-0.211,128.003-13C507.848,372.724,504.182,343.724,504.182,337.723z"/>
<g>
	<path style="fill:#B19D5A;" d="M143.91,265.603c-18.614,17.32-0.131,43.796,15.354,43.796c6.993,0,48.955,0,48.955,0
		l-35.222-43.204L143.91,265.603z"/>
	<path style="fill:#B19D5A;" d="M184.242,197.501c0.828-7.041,29.05-18.125,53.372-23.666l3.056-2.173
		c-2.589-5.346-4.976-21.931-32.451-21.931c-27.476,0-81.69,34.194-79.56,45.727l42.338,25.734l14.483-10.297
		C184.372,204.786,184.007,199.491,184.242,197.501z"/>
</g>
<path style="fill:#B4AA5A;" d="M272.161,173.523c-2.661-4.707-17.665-3.532-34.547,0.313c-24.323,5.54-52.544,16.624-53.372,23.666
	c-0.234,1.99,0.13,7.285,1.24,13.395c2.048,11.263,6.639,25.302,14.744,26.569c15.985,2.497,53.285,6.66,63.942,15.984
	C264.169,224.477,289.826,204.776,272.161,173.523z"/>
<path d="M511.979,334.292c-0.01-0.354-0.019-0.661-0.019-0.917c0-9.846-7.516-19.119-9.64-21.546
	c-0.889-1.332-1.786-2.681-2.7-4.056c-6.867-10.334-14.65-22.047-23.754-33.249c-2.786-3.43-7.824-3.95-11.253-1.163
	c-3.429,2.786-3.95,7.824-1.164,11.253c8.046,9.901,15.157,20.459,21.494,29.984c-2.96,1.887-6.607,4.075-10.823,6.428
	c-4.594-7.309-12.042-18.803-16.74-24.206c-2.898-3.334-7.951-3.688-11.286-0.788c-3.334,2.899-3.687,7.952-0.787,11.286
	c3.608,4.15,9.922,13.762,14.579,21.13c-4.12,2.006-8.497,4.016-13.054,5.961c-3.007-5.719-7.54-13.713-11.84-18.834
	c-2.841-3.384-7.888-3.821-11.271-0.981c-3.384,2.841-3.823,7.888-0.982,11.271c2.932,3.491,6.381,9.374,9.089,14.41
	c-13.127,4.644-27.001,8.225-40.159,9.268c-0.358-11.191-0.367-33.261,3.465-56.948l6.087,4.139c1.377,0.936,2.942,1.385,4.49,1.385
	c2.56,0,5.076-1.227,6.623-3.503c2.484-3.654,1.536-8.63-2.118-11.114l-11.659-7.926c1.244-5.088,2.704-10.148,4.404-15.096
	l7.352,7.544c1.568,1.609,3.648,2.417,5.73,2.417c2.013,0,4.027-0.755,5.583-2.271c3.165-3.083,3.23-8.148,0.146-11.313
	l-12.128-12.446c2.605-5.205,5.576-10.129,8.96-14.646l9.142,15.998c1.477,2.585,4.176,4.032,6.953,4.032
	c1.346,0,2.71-0.34,3.962-1.055c3.836-2.192,5.169-7.079,2.977-10.915l-14.62-25.587c-0.986-1.999-7.201-14.224-18.355-28.5
	c0.743-19.189,9.102-38.412,15.297-50.176c0.025,0,0.05,0.004,0.076,0.004l0.396-0.396c8.496-0.224,15.33-7.059,15.554-15.555
	l0.042-0.042c0-0.556-0.029-1.105-0.085-1.647c-0.647-8.243-7.527-14.734-15.936-14.734c-8.836,0-16,7.164-16,16
	c0,0.46,0.031,0.912,0.069,1.361c0.002,0.037,0.003,0.074,0.005,0.111c0.01,0.105,0.02,0.211,0.032,0.316
	c0.207,2.327,0.911,4.512,2.008,6.448c-5.385,10.104-12.301,25.424-15.598,42.308c-22.487-22.393-48.069-34.186-74.393-34.186
	c-47.183,0-62.361,27.019-62.984,28.168l1.517,0.821c-3.657,0.188-7.86,0.68-12.435,1.445c-3.341-8.148-11.259-22.254-37.996-22.254
	c-26.122,0-69.135,25.201-82.306,41.028c-0.578,0.694-1.104,1.38-1.587,2.057c-23.847-10.099-49.502-19.676-60.251-19.288
	c-22.529,0.775-40.501,12.029-51.977,32.545c-10.634,19.009-11.916,38.754-12.065,42.52c-0.129,3.256-0.472,11.907,7.463,12.813
	c19.226,2.188,80.674,10.896,123.258,17.001c-3.377,7.544-3.573,16.128-0.268,24.533c5.118,13.013,17.22,22.459,28.777,22.459
	h48.195c21.269,22.813,44.018,46.045,57.047,59.352c4.393,4.486,7.81,7.975,9.88,10.128c10.219,10.628,19.302,14.236,26.926,14.236
	c5.23,0,9.766-1.706,13.517-4.002c3.117,2.677,6.062,4.947,8.737,6.792c7.258,5.005,18.841,6.904,32.255,6.904
	c41.091,0,99.306-17.836,102.537-18.837C494.665,380.732,512.702,361.326,511.979,334.292z M261.777,178.445
	c2.132,0,3.431,0.178,4.147,0.326c8.141,15.452,3.691,27.08-1.9,41.696c-0.85,2.221-1.724,4.514-2.569,6.874
	c-5.599-8.883-12.797-19.512-19.318-26.719c-2.965-3.277-8.024-3.529-11.299-0.563c-3.276,2.964-3.529,8.023-0.564,11.3
	c6.333,6.998,13.689,18.126,19.114,26.874c-11.395-3.178-25.626-5.434-40.458-7.574c-2.793-0.403-5.318-0.768-7.423-1.094
	c-0.703-0.23-3.893-3.179-6.648-13.407c-1.881-6.979-2.591-13.729-2.673-16.586c2.626-2.39,11.78-7.404,28.437-12.769
	C236.383,181.726,252.537,178.445,261.777,178.445z M164.589,173.306c16.862-9.606,33.584-15.574,43.64-15.574
	c14.048,0,19.248,4.751,21.943,9.679c-5.929,1.508-12.046,3.311-18.054,5.354c-34.388,11.696-35.386,20.18-35.812,23.802
	c-0.352,2.991,0.26,13.346,3.093,23.771l-3.14-6.852c-0.002-2.301-0.999-4.525-2.775-6.055l-0.558-1.217
	c-0.077,0.035-0.315,0.148-0.679,0.342c-0.169-0.097-0.337-0.193-0.516-0.28c-5.075-2.438-17.407-8.296-32.137-14.833
	C143.571,187.285,151.53,180.746,164.589,173.306z M16.236,238.342c0.867-9.178,4.462-27.998,16.248-41.728
	c8.211-9.565,19.028-14.645,32.152-15.097c0.112-0.004,0.227-0.006,0.347-0.006c8.545,0,34.307,9.924,60.044,21.061
	c0.324,0.167,0.659,0.314,1.005,0.436c11.868,5.15,23.682,10.533,33.753,15.297c-1.749,2.623-3.375,5.743-4.667,9.416
	c-16.318-4.482-56.164-15.057-85.006-19.639c-4.36-0.688-8.462,2.283-9.156,6.646c-0.694,4.363,2.282,8.463,6.646,9.156
	c28.576,4.539,69.696,15.531,84.711,19.666c-0.019,0.63-0.04,1.257-0.04,1.906c0,2.594,0.67,5.892,4.898,12.581
	C121.68,252.914,46.656,242.155,16.236,238.342z M159.274,301.397c-4.367,0-10.989-4.948-13.886-12.314
	c-1.688-4.292-2.48-10.444,2.604-16.2c10.504,1.514,18.606,2.686,22.777,3.291c5.53,6.71,12.714,14.983,21.989,25.225
	L159.274,301.397L159.274,301.397z M453.636,376.687c-46.91,14.526-106.502,24.026-120.975,14.044
	c-17.741-12.234-53.228-50.207-60.551-106.348c-0.571-4.38-4.587-7.47-8.967-6.896c-4.381,0.57-7.47,4.585-6.898,8.967
	c5.739,44.003,26.805,77.594,46.11,98.535c-3.563,0.355-8.819-1.293-16.425-9.203c-2.092-2.176-5.543-5.7-9.981-10.232
	c-15.466-15.795-41.354-42.23-64.44-67.341c-14.061-15.294-23.56-26.286-29.987-34.184c-0.185-0.256-0.381-0.502-0.595-0.734
	c-9.934-12.275-12.176-16.781-12.652-18.297c0.167-17.351,9.75-23.363,11.254-24.2c3.198,11.499,9.119,22.952,19.472,24.569
	c2.192,0.342,4.779,0.716,7.642,1.129c14.552,2.101,44.835,6.471,52.266,12.973c1.488,1.302,3.368,1.979,5.27,1.979
	c1.119,0,2.246-0.234,3.304-0.715c2.858-1.297,4.694-4.146,4.694-7.285c0-9.519,3.297-18.137,6.789-27.263
	c6.085-15.904,12.982-33.932,0.168-56.601c-1.132-2.003-2.742-3.429-4.536-4.466c5.66-5.854,19.039-15.568,45.528-15.568
	c49.09,0,81.122,49.459,90.058,65.177c-41.407,47.594-34.418,139.757-34.09,143.778c0.339,4.151,3.808,7.349,7.974,7.349
	c41.209,0,89.136-24.469,110-38.054c1.093,1.986,1.891,4.021,1.891,5.575c0,0.375,0.011,0.825,0.025,1.345
	C496.173,341.798,496.749,363.336,453.636,376.687z"/>
<path d="M352.098,221.47c-8.818,0-15.992,7.174-15.992,15.992c0,8.818,7.174,15.993,15.992,15.993
	c8.818,0,15.993-7.175,15.993-15.993C368.091,228.645,360.917,221.47,352.098,221.47z"/>
</svg>