<?xml version="1.0" encoding="utf-8"?>
<!-- Uploaded to: SVG Repo, www.svgrepo.com, Generator: SVG Repo Mixer Tools -->
<svg width="800px" height="800px" viewBox="0 -554 2132 2132" class="icon"  version="1.1" xmlns="http://www.w3.org/2000/svg"><path d="M475.287 243.458c20.421-22.982 77.359-3.775 117.546 9.789 102.593 35.627 189.059 95.67 255.477 173.363 31.418 11.991 34.953 72.864 128.437 107.21 35.625 13.085 68.316 16.472 92.591 18.953 109.637 11.151 179.845-18.992 185.394-5.429 7.229 17.859-122.547 49.35-166.961 153.13-32.317 75.478-0.16 147.408-22.434 155.064-20.074 6.909-41.773-53.070-117.452-118.426-60.981-52.657-118.465-75.518-148.648-87.202-54.685-21.166-156.878-50.069-173.257-21.968-14.484 24.861 48.869 76.025 38.052 89.523-4.402 5.508-22.822 6.816-211.242-109.783-89.443-55.352-109.236-70.463-108.035-90.296 2.801-48.097 124.307-46.083 150.142-120.959 21.847-63.647-45.709-123.602-19.607-152.969z" fill="#FA1919" /><path d="M1072.708 719.601c-18.407-38.678-35.479-49.883-216.577-109.703-126.709-41.841-142.020-45.509-168.255-47.296-91.87-6.242-100.219 25.421-159.892 11.229-49.136-11.697-85.175-43.108-135.164-98.978-26.128 11.577-47.069 22.86-48.216 42.494 24.142 22.194 60.861 54.457 108.036 90.296 10.057 7.629 178.885 134.924 200.759 111.849 13.257-13.978-43.668-66.021-27.569-91.591 21.821-34.678 163.175 2.548 269.288 68.45 84.762 52.644 137.605 117.732 166.721 159.679 33.491-75.438 19.447-118.399 10.87-136.431z" fill="#C40000" /><path d="M1062.079 882.788c-8.95 0-19.807-3.375-31.45-14.378-7.562-7.15-15.112-16.832-24.661-29.077-16.885-21.648-40.014-51.31-75.585-82.027-58.687-50.684-114.197-72.198-140.846-82.521-30.051-11.644-49.35-16.739-85.882-26.035-28.782-7.323-47.828-10.804-50.31-5.521-1.334 2.842 3.041 6.282 16.006 23.914 9.123 12.351 13.699 18.527 16.006 23.821 0.533 1.241 11.443 27.743-0.561 43.161-12.443 16.006-42.375 12.004-55.165 7.803-14.604-4.748-33.238-13.138-55.391-24.94-41.68-22.26-91.737-54.271-137.338-87.855-52.417-38.679-101.927-75.13-149.635-138.246-48.802-64.553-104.114-137.711-80.374-213.63 28.997-92.604 153.489-118.385 200.385-128.043 99.032-20.553 178.979 4 209.069 13.204 89.243 27.383 156.799 77.678 197.745 115.065 5.346 4.897 8.683 11.909 8.683 19.7 0 14.739-11.949 26.69-26.69 26.69-6.949 0-13.278-2.656-18.026-7.007-36.886-33.673-97.639-78.968-177.371-103.444-26.515-8.137-96.966-29.743-182.607-12.004-20.005 4.133-57.246 11.845-91.31 27.303-37.746 17.125-60.953 38.8-68.956 64.421-15.552 49.749 28.957 108.636 72.023 165.576 40.915 53.942 92.121 97.837 150.957 129.337-91.338-61.554-63.702-38.572-12.218-1.853 53.924 38.452 137.766 95.112 141.994 89.51 0.853-1.119-2.361-3.615-5.828-10.457-8.802-17.339-8.189-39.854-1.853-50.684 18.299-31.384 65.928-26.676 100.166-20.287 46.481 8.575 92.71 25.755 105.768 30.823 29.449 11.404 90.696 35.145 156.452 91.897 38.119 32.917 62.687 63.888 80.786 87.029-1.254-30.051-1.119-71.317 17.138-113.984 27.049-63.155 81.481-100.313 122.307-124.040l-17.899 0.106c-21.915 0.147-49.203 0.32-82.84 0.215-63.261-0.201-83.881-0.441-96.725-4.268-56.578-16.872-79.532-58.433-106.101-106.555-6.949-12.591-14.138-25.609-22.474-39.307-2.442-3.951-3.889-8.743-3.889-13.872 0-14.733 11.945-26.677 26.678-26.677 9.605 0 18.023 5.076 22.722 12.691 8.989 14.786 16.791 28.897 23.674 41.368 26.303 47.629 40.467 70.997 74.545 81.187 7.469 1.84 41.893 1.947 81.746 2.068 33.344 0.106 60.526-0.067 82.333-0.215 34.292-0.227 54.992-0.36 69.356 0.707 10.764 0.8 36.011 2.667 43.454 25.675 2.934 9.004 4.508 26.676-17.939 43.507-8.15 6.124-19.059 12.218-31.703 19.26-37.344 20.819-93.817 52.284-118.159 109.129-15.604 36.439-13.831 72.023-12.416 100.647 0.626 12.724 1.175 23.714 0 33.344-2.974 24.475-17.486 32.97-25.875 35.852-3.483 1.218-7.498 1.921-11.678 1.921-0.082 0-0.163 0-0.245-0.001z" fill="#000000" /><path d="M843.608 373.647c-0.007 0-0.009 0-0.017 0-8.351 0-15.808-3.838-20.699-9.847l-1.478-1.809c-3.771-4.567-6.057-10.479-6.057-16.925 0-14.733 11.944-26.677 26.678-26.677 8.287 0 15.691 3.777 20.585 9.707l1.718 2.1c3.697 4.541 5.939 10.4 5.939 16.778 0 14.729-11.937 26.669-26.664 26.676z" fill="#000000" /><path d="M387.177 357.816c5.74 3.369 12.64 5.361 20.007 5.361 22.099 0 40.014-17.915 40.014-40.014 0-14.733-7.963-27.606-19.82-34.551-5.927-3.473-12.831-5.463-20.197-5.463-22.1 0-40.014 17.915-40.014 40.014 0 14.732 7.963 27.606 19.82 34.551z" fill="#000000" /></svg>