<?xml version="1.0" encoding="iso-8859-1"?>
<!-- Uploaded to: SVG Repo, www.svgrepo.com, Generator: SVG Repo Mixer Tools -->
<svg version="1.1" id="Layer_1" xmlns="http://www.w3.org/2000/svg" xmlns:xlink="http://www.w3.org/1999/xlink" 
	 viewBox="0 0 512.001 512.001" xml:space="preserve">
<path style="fill:#78909C;" d="M503.916,270.821c0,62.852-99.494,129.347-215.579,129.347s-204.8-57.911-204.8-129.347
	s88.715-129.347,204.8-129.347S503.916,207.969,503.916,270.821z"/>
<path style="fill:#5FCCC7;" d="M234.443,206.147h-18.237c11.547,18.295,18.236,41.44,18.236,64.674s-6.688,46.379-18.236,64.674
	h20.931l72.758-32.337v-64.674L234.443,206.147z"/>
<path style="fill:#4A6068;" d="M216.206,206.147h-24.88c11.547,18.722,18.236,40.897,18.236,64.674s-6.688,45.952-18.236,64.674
	h24.88c11.547-18.295,18.236-41.44,18.236-64.674S227.754,224.442,216.206,206.147z"/>
<path style="fill:#4DA39B;" d="M226.739,313.937c-2.82,7.669-6.353,14.934-10.534,21.558h20.932l72.758-32.337V281.6l-72.758,32.337
	H226.739z"/>
<g>
	<path style="fill:#5FCCC7;" d="M252.528,143.369c11.584-1.241,23.541-1.895,35.809-1.895c17.495,0,34.61,1.52,51.068,4.301
		C329.324,106.127,293.394,76.8,250.611,76.8c-15.591,0-30.264,3.905-43.116,10.774C229.195,99.17,245.681,119.241,252.528,143.369z
		"/>
	<path style="fill:#5FCCC7;" d="M288.337,400.168c-12.268,0-24.225-0.654-35.809-1.895c-6.847,24.127-23.333,44.198-45.033,55.795
		c12.852,6.868,27.525,10.774,43.116,10.774c42.784,0,78.713-29.327,88.795-68.974C322.947,398.649,305.832,400.168,288.337,400.168
		z"/>
	<path style="fill:#5FCCC7;" d="M83.537,270.821c0-14.098,3.469-27.665,9.907-40.368c-23.846-27.282-70.905-45.863-85.36-45.863
		v10.779c6.378,14.71,21.558,75.453,21.558,75.453s-15.767,59.652-21.558,75.453v10.779c14.455,0,61.513-18.582,85.36-45.863
		C87.006,298.486,83.537,284.919,83.537,270.821z"/>
</g>
<path style="fill:#4A6068;" d="M503.916,270.821c0-47.725-57.372-97.542-135.807-118.761
	c-30.276,31.912-47.435,74.538-47.435,118.761s17.159,86.849,47.435,118.761C446.544,368.363,503.916,318.546,503.916,270.821z"/>
<g>
	<circle style="fill:#E0E0E0;" cx="412.295" cy="233.095" r="16.168"/>
	<path style="fill:#E0E0E0;" d="M391.372,159.397c-30.196,27.594-49.14,67.295-49.14,111.424s18.944,83.83,49.14,111.424
		c66.258-24.005,112.544-68.558,112.544-111.424S457.63,183.403,391.372,159.397z"/>
</g>
<g>
	<path style="fill:#4DA39B;" d="M76.991,326.275c6.102-4.639,11.736-9.689,16.453-15.086c-6.438-12.703-9.907-26.27-9.907-40.368
		s3.469-27.665,9.907-40.368c-4.717-5.397-10.351-10.447-16.453-15.086c-9.853,17.299-15.012,36.012-15.012,55.454
		C61.979,290.263,67.138,308.976,76.991,326.275z"/>
	<path style="fill:#4DA39B;" d="M243.766,122.697c3.719,6.439,6.688,13.366,8.762,20.672c11.584-1.241,23.541-1.895,35.809-1.895
		c17.495,0,34.61,1.52,51.068,4.301c-2.092-8.23-5.313-16.005-9.463-23.175c-13.628-1.753-27.543-2.684-41.605-2.684
		C273.172,119.916,258.26,120.86,243.766,122.697z"/>
	<path style="fill:#4DA39B;" d="M252.528,398.273c-2.074,7.306-5.043,14.231-8.762,20.672c14.494,1.837,29.405,2.781,44.571,2.781
		c14.061,0,27.977-0.932,41.605-2.684c4.15-7.17,7.371-14.945,9.463-23.175c-16.458,2.781-33.572,4.301-51.068,4.301
		C276.069,400.168,264.112,399.514,252.528,398.273z"/>
</g>
<path style="fill:#4A6068;" d="M105.095,270.821c0-38.08,19.004-72.86,50.994-99.413c-44.784,23.728-72.552,59.451-72.552,99.413
	s27.768,75.685,72.552,99.413C124.099,343.681,105.095,308.901,105.095,270.821z"/>
<circle style="fill:#57565C;" cx="412.295" cy="233.095" r="16.168"/>
<path style="fill:#FFFFFF;" d="M133.879,242.108l-14.452-7.248c2.585-5.157,5.814-10.199,9.594-14.99l12.691,10.017
	C138.61,233.819,135.974,237.93,133.879,242.108z M151.85,219.109L141,207.122c29.068-26.307,74.913-41.395,125.778-41.395v16.168
	C219.871,181.895,177.982,195.459,151.85,219.109z"/>
<path d="M412.295,208.842c-13.373,0-24.253,10.879-24.253,24.253s10.879,24.253,24.253,24.253c13.373,0,24.253-10.879,24.253-24.253
	S425.668,208.842,412.295,208.842z M412.295,241.179c-4.458,0-8.084-3.626-8.084-8.084s3.626-8.084,8.084-8.084
	s8.084,3.626,8.084,8.084S416.753,241.179,412.295,241.179z"/>
<path d="M502.236,307.85c0.143-0.272,0.278-0.544,0.418-0.816c0.431-0.84,0.849-1.68,1.251-2.523
	c0.254-0.532,0.506-1.064,0.748-1.597c0.165-0.363,0.328-0.727,0.487-1.09c0.346-0.786,0.68-1.574,1-2.361
	c0.043-0.106,0.089-0.211,0.133-0.317c0.378-0.941,0.732-1.883,1.074-2.826c0.072-0.198,0.141-0.397,0.211-0.595
	c0.318-0.898,0.622-1.797,0.905-2.696c0.017-0.055,0.036-0.109,0.053-0.163c0.313-0.995,0.602-1.991,0.872-2.987
	c0.031-0.115,0.06-0.232,0.092-0.348c0.244-0.912,0.47-1.825,0.678-2.737c0.023-0.099,0.046-0.197,0.069-0.296
	c0.223-0.995,0.426-1.99,0.607-2.985c0.016-0.088,0.03-0.177,0.045-0.266c0.158-0.886,0.298-1.772,0.423-2.658
	c0.025-0.174,0.051-0.348,0.073-0.522c0.128-0.965,0.241-1.928,0.33-2.892c0.008-0.082,0.012-0.163,0.019-0.245
	c0.077-0.862,0.134-1.724,0.178-2.584c0.012-0.238,0.024-0.475,0.033-0.714c0.039-0.939,0.065-1.877,0.065-2.813
	c0-0.937-0.026-1.874-0.065-2.813c-0.01-0.238-0.022-0.475-0.033-0.714c-0.044-0.861-0.101-1.723-0.178-2.584
	c-0.008-0.082-0.012-0.163-0.019-0.245c-0.088-0.964-0.202-1.928-0.33-2.892c-0.023-0.174-0.049-0.348-0.073-0.522
	c-0.125-0.886-0.264-1.772-0.423-2.658c-0.016-0.088-0.029-0.177-0.045-0.266c-0.181-0.995-0.384-1.99-0.607-2.985
	c-0.023-0.099-0.046-0.197-0.069-0.296c-0.208-0.912-0.434-1.825-0.678-2.737c-0.031-0.116-0.06-0.232-0.092-0.348
	c-0.271-0.996-0.559-1.992-0.872-2.987c-0.017-0.054-0.036-0.109-0.053-0.163c-0.285-0.899-0.587-1.798-0.905-2.696
	c-0.07-0.198-0.14-0.397-0.211-0.595c-0.342-0.942-0.695-1.885-1.074-2.826c-0.042-0.106-0.089-0.211-0.133-0.317
	c-0.32-0.788-0.655-1.575-1-2.361c-0.16-0.363-0.322-0.727-0.487-1.09c-0.243-0.532-0.494-1.065-0.748-1.597
	c-0.402-0.843-0.82-1.684-1.251-2.523c-0.14-0.272-0.275-0.544-0.418-0.816c-0.336-0.641-0.684-1.282-1.038-1.922
	c-0.06-0.109-0.121-0.217-0.181-0.326c-8.604-15.459-22.086-30.4-39.8-43.921c-0.25-0.192-0.5-0.382-0.752-0.572
	c-1.09-0.824-2.196-1.641-3.317-2.453c-0.484-0.351-0.961-0.706-1.451-1.055c-0.733-0.522-1.484-1.037-2.23-1.554
	c-1.632-1.134-3.289-2.253-4.972-3.355c-0.265-0.174-0.527-0.348-0.793-0.521c-1.164-0.756-2.341-1.503-3.529-2.243
	c-0.084-0.052-0.164-0.106-0.248-0.157c-0.123-0.077-0.248-0.15-0.371-0.225c-5.178-3.206-10.577-6.266-16.181-9.17
	c-0.177-0.092-0.352-0.183-0.529-0.274c-10.278-5.296-21.214-10.078-32.718-14.247l-4.597-1.665l-0.077,0.07
	c-14.057-4.811-28.702-8.653-43.644-11.441c-12.879-41.491-51.293-70.043-95.196-70.043c-16.344,0-32.571,4.055-46.926,11.727
	l-13.341,7.13l13.341,7.13c17.124,9.151,30.559,24.119,37.916,41.878c-28.668,3.972-55.533,11.606-79.251,22.682
	c-31.617,14.765-55.804,34.641-70.617,57.9C65.406,192.9,23.627,176.505,8.084,176.505H0v20.54l0.667,1.538
	c4.825,11.128,16.062,54.06,20.627,72.18c-2.795,10.504-15.792,59.065-20.799,72.728L0,344.839v20.298h8.084
	c15.543,0,57.321-16.395,83.648-40.658c14.813,23.259,39.001,43.135,70.617,57.9c23.718,11.076,50.583,18.711,79.251,22.682
	c-7.357,17.758-20.792,32.726-37.916,41.878l-13.341,7.13l13.341,7.13c14.356,7.672,30.584,11.727,46.926,11.727
	c43.904,0,82.318-28.551,95.196-70.045c14.942-2.789,29.587-6.631,43.644-11.441l0.077,0.07l4.597-1.665
	c11.505-4.168,22.442-8.951,32.718-14.247c0.177-0.091,0.354-0.182,0.529-0.274c5.603-2.904,11.003-5.964,16.181-9.17
	c0.123-0.075,0.248-0.149,0.371-0.225c0.084-0.052,0.164-0.106,0.248-0.157c1.188-0.741,2.365-1.488,3.529-2.243
	c0.266-0.172,0.528-0.347,0.793-0.521c1.684-1.103,3.34-2.222,4.972-3.355c0.746-0.517,1.497-1.032,2.23-1.554
	c0.488-0.348,0.966-0.703,1.449-1.054c1.122-0.814,2.229-1.632,3.32-2.457c0.249-0.19,0.499-0.378,0.747-0.569
	c17.715-13.521,31.198-28.463,39.802-43.922c0.06-0.109,0.121-0.217,0.181-0.326C501.551,309.132,501.899,308.491,502.236,307.85z
	 M495.729,273.877c-0.026,0.427-0.061,0.856-0.097,1.284c-0.043,0.529-0.099,1.06-0.157,1.59
	c-2.966,25.819-24.945,53.606-60.084,75.447c-8.855,5.504-18.316,10.497-28.239,14.944c-0.155,0.069-0.31,0.139-0.466,0.208
	c-4.391,1.957-8.874,3.806-13.435,5.546c-27.345-26.786-42.936-63.708-42.936-102.074s15.591-75.289,42.935-102.074
	c4.559,1.74,9.042,3.588,13.435,5.546c0.155,0.069,0.31,0.138,0.466,0.208c9.923,4.446,19.384,9.439,28.239,14.944
	c35.14,21.841,57.118,49.628,60.084,75.447c0.059,0.53,0.114,1.061,0.157,1.59c0.037,0.429,0.072,0.857,0.097,1.284
	c0.059,1.021,0.102,2.04,0.102,3.056S495.788,272.856,495.729,273.877z M258.224,134.693c-6.528-18.104-18.282-34.029-33.572-45.676
	c8.348-2.723,17.132-4.134,25.959-4.134c34.004,0,64.088,20.433,76.964,50.977c-9.503-1.195-19.057-1.955-28.586-2.283
	c-0.089-0.003-0.18-0.008-0.27-0.011c-1.491-0.05-2.981-0.087-4.471-0.115c-0.264-0.005-0.527-0.014-0.791-0.018
	c-1.708-0.028-3.416-0.044-5.121-0.044c-2.681,0-5.361,0.036-8.041,0.097c-1.168,0.027-2.329,0.075-3.493,0.113
	c-1.471,0.049-2.943,0.094-4.411,0.162c-1.443,0.066-2.879,0.151-4.316,0.234c-1.172,0.068-2.343,0.136-3.512,0.216
	c-1.553,0.106-3.1,0.226-4.645,0.354C259.354,134.611,258.786,134.644,258.224,134.693z M100.655,307.535l-5.415-10.684
	l-7.883,9.018c-19.017,21.757-53.502,37.353-71.188,41.804c6.173-17.663,20.659-72.401,21.288-74.785l0.531-2.009l-0.503-2.017
	c-0.604-2.415-14.351-57.306-21.229-74.87c17.712,4.479,52.115,20.06,71.101,41.781l7.883,9.018l5.415-10.684
	c22.391-44.176,82.779-75.689,155.437-82.953c1.451-0.143,2.902-0.283,4.361-0.407c1.028-0.088,2.06-0.169,3.092-0.248
	c2.05-0.154,4.106-0.293,6.168-0.409c0.59-0.033,1.179-0.068,1.771-0.098c2.508-0.127,5.022-0.229,7.54-0.299
	c0.258-0.008,0.515-0.017,0.773-0.024c2.845-0.073,5.693-0.113,8.54-0.113c1.865,0,3.734,0.024,5.603,0.059
	c0.708,0.014,1.416,0.036,2.125,0.055c1.118,0.029,2.236,0.065,3.354,0.107c0.937,0.036,1.873,0.075,2.81,0.12
	c0.781,0.037,1.564,0.081,2.345,0.124c24.504,1.369,48.9,5.793,71.814,12.903c-26.983,29.24-42.241,67.858-42.241,107.896
	s15.258,78.656,42.242,107.895c-22.914,7.111-47.31,11.535-71.814,12.904c-0.781,0.043-1.564,0.087-2.345,0.124
	c-0.937,0.045-1.873,0.084-2.81,0.12c-1.119,0.042-2.237,0.078-3.354,0.107c-0.708,0.019-1.416,0.041-2.125,0.055
	c-1.869,0.036-3.738,0.059-5.603,0.059c-2.848,0-5.696-0.04-8.54-0.113c-0.258-0.007-0.515-0.016-0.773-0.024
	c-2.518-0.07-5.032-0.171-7.54-0.299c-0.592-0.03-1.181-0.065-1.771-0.098c-2.062-0.115-4.118-0.254-6.168-0.409
	c-1.033-0.079-2.064-0.16-3.092-0.248c-1.459-0.124-2.91-0.264-4.361-0.407C183.433,383.224,123.046,351.712,100.655,307.535z
	 M327.574,405.781c-12.877,30.544-42.96,50.977-76.964,50.977c-8.827,0-17.611-1.411-25.959-4.134
	c15.288-11.646,27.047-27.573,33.572-45.676c1.067,0.093,2.139,0.177,3.209,0.26c0.827,0.064,1.654,0.125,2.482,0.183
	c2.168,0.153,4.341,0.288,6.518,0.4c0.484,0.025,0.969,0.049,1.454,0.071c2.365,0.111,4.735,0.198,7.109,0.26
	c0.503,0.013,1.007,0.025,1.511,0.036c1.995,0.043,3.993,0.066,5.992,0.072c0.614,0.003,1.223,0.023,1.839,0.023
	c5.768,0,11.546-0.176,17.321-0.503c0.306-0.017,0.612-0.038,0.917-0.055c1.03-0.061,2.06-0.121,3.09-0.192
	C315.644,407.099,321.62,406.53,327.574,405.781z"/>
<path d="M201.544,343.579h37.309l74.325-33.033l-6.567-14.775l-71.191,31.641h-5.557c8.222-17.265,12.662-36.901,12.662-56.589
	c0-19.689-4.439-39.325-12.662-56.589h2.919l73.926,31.684l6.369-14.861l-76.977-32.992h-34.559l7.827,12.399
	c10.956,17.355,16.989,38.791,16.989,60.359s-6.033,43.004-16.989,60.359L201.544,343.579z"/>
<rect x="495.832" y="71.411" width="16.168" height="16.168"/>
<rect x="495.832" y="39.074" width="16.168" height="16.168"/>
<rect x="495.832" y="103.747" width="16.168" height="16.168"/>
<rect x="495.832" y="168.421" width="16.168" height="16.168"/>
<rect x="495.832" y="136.084" width="16.168" height="16.168"/>
<rect x="452.716" y="60.632" width="16.168" height="16.168"/>
<rect x="452.716" y="125.305" width="16.168" height="16.168"/>
<rect x="452.716" y="92.968" width="16.168" height="16.168"/>
</svg>