<?xml version="1.0" encoding="iso-8859-1"?>
<!-- Uploaded to: SVG Repo, www.svgrepo.com, Generator: SVG Repo Mixer Tools -->
<svg xmlns="http://www.w3.org/2000/svg" xmlns:xlink="http://www.w3.org/1999/xlink" version="1.1" id="Layer_1"  viewBox="0 0 478.659 478.659" xml:space="preserve" width="512" height="512">
<g>
	<path style="fill:#3768AF;" d="M168.715,372.13l-0.501-0.155c-7.589-2.347-10.641-6.384-11.864-9.358   c-1.729-4.163-1.119-9.166,1.774-14.441l18.178-33.321l7.297,4.963c5.715,3.888,11.508,7.871,17.193,11.78l1.269,0.872   c20.19,13.903,41.063,28.276,61.165,40.107l-5.405,14.78L168.715,372.13z"/>
	<path style="fill:#3768AF;" d="M235.415,150.011l32.505-48.23c1.373-2.167,12.642-19.173,30.189-22.637   c2.048-0.404,4.127-0.608,6.181-0.608c7.462,0,15.014,2.713,22.444,8.065c9.174,6.599,19.851,14.414,31.73,23.227l24.442,18.131   l-30.198-3.767c-4.779-0.596-9.597-0.898-14.319-0.898c-28.809,0-64.321,20.274-92.042,37.937L235.415,150.011z"/>
	<path style="fill:#61ACD2;" d="M338.389,400.133c-3.983,0-13.82-1.356-13.82-1.356c-35.947-6.717-79.951-37.01-122.506-66.305   c-9.271-6.379-17.61-12.106-25.779-17.584c-14.509-9.712-25.94-16.887-35.971-22.576c-6.238-3.546-12.949-5.418-19.414-5.418   c-8.627,0-16.402,3.463-21.895,9.752C84.97,312.718,62.918,336.5,33.584,357.353L9.818,374.248l11.817-26.658   c12.066-27.22,18.464-56.086,19.014-85.802v-0.142c-0.55-29.713-6.947-58.583-19.015-85.813L9.818,149.169l23.768,16.905   c29.338,20.866,51.387,44.646,65.42,60.717c5.491,6.289,13.267,9.752,21.894,9.752c6.45,0,13.163-1.874,19.414-5.419   c19.351-10.976,39.94-25.152,61.739-40.161c48.379-33.292,98.336-67.67,136.337-67.67c35.107,0,68.474,15.897,93.951,44.764   c23.292,26.39,37.257,60.433,38.314,93.4l0.008,0.256l-0.008,0.256c-1.058,32.967-15.022,67.01-38.314,93.4   C406.863,384.235,373.497,400.133,338.389,400.133z"/>
	<g>
		<circle cx="416.935" cy="225.823" r="8"/>
		<path d="M381.405,269.253c-2.192,0-4.375-0.896-5.955-2.655c-0.704-0.784-17.21-19.442-15.215-41.45    c1.088-11.998,7.272-22.437,18.38-31.025c3.495-2.703,8.52-2.059,11.223,1.435c2.702,3.496,2.06,8.52-1.436,11.222    c-7.552,5.839-11.553,12.32-12.232,19.813c-1.351,14.898,11.059,29.175,11.185,29.315c2.952,3.287,2.681,8.345-0.606,11.297    C385.219,268.577,383.308,269.253,381.405,269.253z"/>
		<path d="M438.109,162.353c-10.43-11.74-22.12-21.43-34.71-28.91c-20.31-15.31-49.33-37.03-71.99-53.34    c-11.4-8.2-23.17-11.16-34.98-8.78c-20.88,4.19-33.89,23.99-35.29,26.21l-54.13,80.32c-3.17,2.17-6.34,4.35-9.49,6.52    c-21.7,14.93-42.19,29.03-61.16,39.8c-5.03,2.85-10.38,4.37-15.46,4.37c-4.45,0-10.81-1.22-15.87-7.02    c-19.5-22.33-50.36-54.78-93.13-78.63c-3.18-1.78-7.15-1.18-9.67,1.44c-2.52,2.63-2.95,6.62-1.05,9.72    c19.87,32.42,30.75,69.64,31.47,107.66c-0.72,38.02-11.6,75.25-31.47,107.66c-1.9,3.11-1.47,7.1,1.05,9.72    c2.52,2.63,6.49,3.22,9.67,1.45c42.77-23.86,73.63-56.3,93.13-78.63c5.06-5.8,11.42-7.02,15.87-7.02c5.08,0,10.43,1.51,15.46,4.37    c8.48,4.81,17.94,10.68,29.39,18.23l-14.65,26.86c-5.18,9.44-4.01,16.83-2.13,21.37c1.95,4.68,6.58,10.92,17.57,14.1    c0.29,0.08,0.58,0.15,0.87,0.2l155.63,26.61c0,0,10.94,1.5,15.35,1.5c37.36,0,72.77-16.71,99.72-47.05    c24.71-27.84,39.49-63.97,40.55-99.13v-0.48C477.599,226.323,462.819,190.193,438.109,162.353z M274.479,106.363    c0.06-0.08,0.12-0.18,0.18-0.27c0.1-0.16,10.21-16.18,25-19.1c7.35-1.45,14.68,0.54,22.4,6.1c9.76,7.02,20.72,15.06,31.64,23.16    c-5.05-0.63-10.16-0.96-15.31-0.96c-28.35,0-61.86,17.22-96.34,39.19L274.479,106.363z M170.579,364.333    c-3.59-1.11-6.02-2.79-6.83-4.76c-1.03-2.48,0.42-5.78,1.39-7.55l13.96-25.59c6.13,4.17,12.35,8.45,18.43,12.63    c20.52,14.13,41.37,28.48,61.64,40.41L170.579,364.333z M338.389,392.133c-3.49,0-12.35-1.22-12.35-1.22    c-34.25-6.4-77.56-36.2-119.44-65.03c-8.53-5.87-17.36-11.94-25.86-17.64c-14.61-9.78-26.2-17.06-36.48-22.89    c-7.44-4.23-15.52-6.46-23.36-6.46c-10.97,0-20.89,4.44-27.92,12.49c-14.66,16.79-35.98,39.51-64.03,59.45    c12.39-27.95,19.14-58.22,19.7-88.97v-0.29c-0.56-30.75-7.31-61.02-19.7-88.98c28.05,19.95,49.37,42.67,64.03,59.46    c7.03,8.05,16.95,12.49,27.92,12.49c7.84,0,15.92-2.24,23.36-6.46c19.57-11.1,40.34-25.39,62.33-40.53    c47.33-32.57,96.27-66.26,131.8-66.26c70.83,0,122.29,68.68,124.27,130.42C460.679,323.453,409.219,392.133,338.389,392.133z"/>
	</g>
</g>















</svg>